<?xml version="1.0" standalone="no"?>
<!DOCTYPE svg PUBLIC "-//W3C//DTD SVG 20010904//EN"
 "http://www.w3.org/TR/2001/REC-SVG-20010904/DTD/svg10.dtd">
<svg version="1.0" xmlns="http://www.w3.org/2000/svg"
 width="65.000000pt" height="55.000000pt" viewBox="0 0 65.000000 55.000000"
 preserveAspectRatio="xMidYMid meet">
<metadata>
Created by potrace 1.10, written by Peter Selinger 2001-2011
</metadata>
<g transform="translate(0.000000,55.000000) scale(0.100000,-0.100000)"
fill="#000000" stroke="none">
<path d="M316 487 c-5 -36 -5 -67 2 -80 9 -21 10 -21 17 6 4 16 3 52 -2 80
l-9 52 -8 -58z"/>
<path d="M185 495 c3 -11 9 -32 12 -48 7 -33 21 -45 17 -14 -1 12 -3 27 -3 33
-1 5 -8 19 -17 30 -15 19 -16 19 -9 -1z"/>
<path d="M230 413 c0 -15 5 -35 10 -43 7 -11 10 -6 10 22 0 20 -4 40 -10 43
-6 4 -10 -6 -10 -22z"/>
<path d="M408 434 c-5 -4 -8 -23 -8 -43 1 -30 2 -33 11 -18 11 19 8 73 -3 61z"/>
<path d="M277 393 c-11 -10 -8 -53 3 -53 6 0 10 14 10 30 0 31 -2 35 -13 23z"/>
<path d="M360 378 c0 -13 5 -30 10 -38 7 -11 10 -5 10 23 0 20 -4 37 -10 37
-5 0 -10 -10 -10 -22z"/>
<path d="M110 351 c30 -16 56 -28 58 -26 11 10 -16 36 -46 45 -64 17 -69 10
-12 -19z"/>
<path d="M524 369 c-27 -7 -52 -35 -42 -44 2 -2 28 10 58 26 54 28 46 36 -16
18z"/>
<path d="M200 335 c13 -14 28 -25 33 -25 13 0 67 -40 67 -50 0 -5 -24 2 -52
15 -29 13 -75 26 -103 29 l-50 5 40 -10 c22 -6 56 -15 76 -20 20 -5 48 -20 61
-34 l26 -25 5 22 c8 29 -35 86 -79 104 -47 20 -51 18 -24 -11z"/>
<path d="M425 346 c-57 -25 -104 -103 -74 -122 5 -3 9 -1 9 4 0 15 49 44 100
59 45 13 45 13 6 8 -21 -2 -56 -13 -77 -24 -21 -12 -39 -17 -39 -12 0 12 49
51 65 51 6 0 22 11 35 25 26 28 20 31 -25 11z"/>
<path d="M90 259 c-20 -17 -21 -20 -5 -14 11 4 28 10 38 12 9 3 17 9 17 14 0
15 -24 9 -50 -12z"/>
<path d="M516 271 c-3 -5 2 -11 12 -14 9 -2 26 -8 37 -12 17 -6 17 -4 -4 14
-25 23 -37 26 -45 12z"/>
<path d="M312 134 c-1 -69 -6 -105 -15 -112 -7 -6 -58 -13 -113 -15 l-99 -3
101 -2 c137 -3 136 -4 131 128 l-3 105 -2 -101z"/>
<path d="M332 103 c-3 -103 0 -105 140 -100 l103 3 -106 2 c-73 1 -110 6 -117
15 -6 7 -13 46 -15 87 l-3 75 -2 -82z"/>
<path d="M282 93 c-1 -17 -9 -39 -18 -47 -8 -9 -11 -16 -6 -16 19 0 33 30 29
62 l-4 33 -1 -32z"/>
</g>
</svg>
